<svg xmlns:xlink="http://www.w3.org/1999/xlink" width="3.905ex" height="2.509ex" style="font-size: 15px; vertical-align: -0.671ex;" viewBox="0 -791.3 1681.2 1080.4" role="img" focusable="false" xmlns="http://www.w3.org/2000/svg">
<defs>
<path stroke-width="1" id="E1-MJMAINB-49" d="M397 0Q370 3 218 3Q65 3 38 0H25V62H139V624H25V686H38Q65 683 218 683Q370 683 397 686H410V624H296V62H410V0H397Z"></path>
<path stroke-width="1" id="E1-MJMAINB-64" d="M351 686L442 690Q533 694 534 694H540V389Q540 327 540 253T539 163Q539 97 541 83T555 66Q569 62 596 62H609V31Q609 0 608 0Q588 0 510 -3T412 -6Q411 -6 411 16V38L401 31Q337 -6 265 -6Q159 -6 99 58T38 224Q38 265 51 303T92 375T165 429T272 449Q359 449 417 412V507V555Q417 597 415 607T402 620Q388 624 361 624H348V686H351ZM411 350Q362 399 291 399Q278 399 256 392T218 371Q195 351 189 320T182 238V221Q182 179 183 159T191 115T212 74Q241 46 288 46Q358 46 404 100L411 109V350Z"></path>
<path stroke-width="1" id="E1-MJMATHBI-53" d="M354 45Q429 45 467 91T506 184Q506 225 477 250Q461 262 384 279T294 300Q238 318 210 362T182 452Q182 493 202 540T257 623Q338 702 449 702Q491 702 501 701Q571 690 610 654Q614 649 617 650Q618 650 650 675T683 702Q685 703 692 703Q714 703 714 690Q714 686 687 578T658 466Q653 458 629 458Q606 458 602 463Q600 465 599 466Q599 467 599 469T598 473Q598 475 599 487T600 511Q600 584 557 614T454 645Q386 645 347 606T308 520Q308 506 311 496T323 477T338 464T360 454T384 446T413 439T441 433Q523 416 549 401Q581 384 602 352Q631 309 631 254Q631 214 615 170T567 83T478 12T347 -16Q322 -16 300 -14T261 -8T230 0T205 10T187 20T172 30L162 37L130 11Q124 7 119 3T110 -4T104 -9T100 -13T96 -15T93 -16T91 -17T88 -17H82Q76 -17 73 -16T69 -14T66 -10T63 -5L90 107Q97 133 106 170Q116 211 120 219T136 228H148Q167 228 173 227T179 218Q179 216 176 200T173 168Q173 102 227 74T354 45Z"></path>
</defs>
<g stroke="currentColor" fill="currentColor" stroke-width="0" transform="matrix(1 0 0 -1 0 0)">
 <use xlink:href="#E1-MJMAINB-49" x="0" y="0"></use>
 <use xlink:href="#E1-MJMAINB-64" x="436" y="0"></use>
 <use transform="scale(0.707)" xlink:href="#E1-MJMATHBI-53" x="1521" y="-217"></use>
</g>
</svg>